<svg width="100" height="100" viewBox="0 0 100 100" fill="none" xmlns="http://www.w3.org/2000/svg">
<rect width="100" height="100" rx="16" fill="#222222"/>
<path d="M79.2225 71.8634L67.4953 60.1561C66.9089 59.6878 66.2053 59.3366 65.5016 59.3366H63.6253C66.7916 55.239 68.7853 50.0878 68.7853 44.3512C68.7853 31.0049 57.7617 20 44.3926 20C30.9063 20 20 31.0049 20 44.3512C20 57.8146 30.9063 68.7024 44.3926 68.7024C50.0217 68.7024 55.1817 66.8293 59.4035 63.5512V65.5415C59.4035 66.2439 59.638 66.9463 60.2244 67.5317L71.8343 79.122C73.0071 80.2927 74.7661 80.2927 75.8216 79.122L79.1052 75.8439C80.2779 74.7902 80.2779 73.0341 79.2225 71.8634ZM44.3926 59.3366C36.0663 59.3366 29.3818 52.6634 29.3818 44.3512C29.3818 36.1561 36.0663 29.3659 44.3926 29.3659C52.6017 29.3659 59.4035 36.1561 59.4035 44.3512C59.4035 52.6634 52.6017 59.3366 44.3926 59.3366Z" fill="white"/>
</svg>
