<svg width="100" height="100" viewBox="0 0 100 100" fill="none" xmlns="http://www.w3.org/2000/svg">
<path fill-rule="evenodd" clip-rule="evenodd" d="M39.8225 86.8018H68.3735L88.1414 45.515C90.0115 41.6091 88.4342 36.9243 84.5826 34.9449L45.0891 14.648C41.0812 12.5882 36.1637 14.2435 34.2172 18.3076L12.0218 64.6492C10.1118 68.6371 11.7992 73.4182 15.7893 75.3238L39.8225 86.8018ZM58.8965 63.8264L64.233 73.0513C64.6938 73.9543 64.4015 75.0452 63.4976 75.5046L60.9121 76.9944C60.0615 77.546 58.9687 77.2532 58.4351 76.3307L53.152 67.198C52.8851 66.7368 52.8564 66.2613 52.9733 65.825L53.3046 64.5886C50.1362 65.9222 46.6189 66.227 43.122 65.29C34.744 63.0451 29.7811 54.4659 32.0221 46.1021C34.2437 37.811 42.8508 32.7899 51.2289 35.0348C59.534 37.2602 64.5503 45.9316 62.3287 54.2227C61.3739 57.7864 59.2779 60.6546 56.6288 62.6731L57.7945 62.9854C58.2316 63.1025 58.6102 63.4379 58.8965 63.8264ZM37.8503 47.6637C36.4667 52.8275 39.5085 58.0857 44.681 59.4717C49.7807 60.8381 55.1169 57.8248 56.5005 52.6611C57.8647 47.57 54.7695 42.2196 49.6699 40.8531C44.4973 39.4672 39.2145 42.5727 37.8503 47.6637Z" fill="white"/>
</svg>
