<svg version="1.1" id="Layer_1" xmlns="http://www.w3.org/2000/svg" xmlns:xlink="http://www.w3.org/1999/xlink" x="0px" y="0px" viewBox="0 0 1063 696" style="enable-background:new 0 0 1063 696;" xml:space="preserve"><path id="IA" d="M529,211.3l-1.4,6l2.9,18l17.4,49.8l71.9-1.8c0,0,2.3,2.4,2.9,3.1l6.2-11c-4.4-5-5.3-8.2-3-10.5 c0.6-0.6,5.3-7.7,5.3-7.7h9.2l3-6.7l-17.8-20.5l-3-16.1l-3.3-2.7H529z" class="tan" data-original-title="" title=""></path><path id="WV" d="M852.1,287.2l-18.9,4l-1.8-7.2c-0.4,2.4-1.8,9.5-1.8,9.5L809.6,313l-4.5,15.2v7.3l11.3,15.3l5.7,3 l22-12l7.6-33.6l3.7,1.5c3.1,1.2,5,2,6.2,2.6c2-2.2,5.9-7.1,9.3-11.5l2.4-12.1l-3.6,0.6l-14.9,13L852.1,287.2z"></path><path id="IL" d="M696.5,247.1c-1.5-3.5-3.4-7.8-5.2-11.9l-48,4.2l7.9,10.2l-6.5,14.4h-9.9c-0.9,1.3-2,3-3,4.3 c0.7,1.1,5.3,6.2,5.3,6.2l-10,17.6c0.5,1.8,2,14.4,2.2,15.6c1.8,1.4,13.9,8.6,13.9,8.6l2.2,11l2.6-2.5l8.8,11.3l-5,11.8l16.7,14.7 l3.1,12h0.5l5.3-4.2l6.1,1.9l7.3-12.5v-13.4l8.7-15.7l-3-7L696.5,247.1z" class="tan" data-original-title="" title=""></path><path id="IN" d="M697.6,353.9l9.1-6.7l8,5l17.6-6.2l11.3-21.9l8.3-2.9l-7.9-74.8l-40.1,0.5c-0.2,0.4-0.3,0.7-0.5,1.1 l0.1,74.8l3.8,8.1l-9.5,17.2V353.9L697.6,353.9z"></path><path id="KY" d="M737,351.6l-23.2,8.2l-6.8-4.3l-10.2,7.5l-10.1,17.3l-7.8-2.4l-1,0.8l4.1,6.5l-0.6,1.6 c-0.5,1.3-1,2.4-1.4,3.4l10.4-1.2l5.2-4.2l90.4-10l23.7-21.8l-11.3-15.3v-8.2l-6.7-4.2l-8.6,4.9l-15.5-3.8l-4.4-7.6l-4.9-1.1l0.9,8 l-10.8,3.8L737,351.6z"></path><path id="WI" d="M600.1,175.4c2.7,1.6,9,6.6,26.8,21.5l2.1,1.7l-4.3,8.4l4,3.3l3,16l6.7,6.7l50-4.4 c-2.4-5.4-4.2-9.6-4.3-9.7c-0.3-0.4,12.2-62.9,12.2-62.9l-18.2,19.6l6-12.6c-6.3-4.6-6.3-5.6-6.3-7v-10.7l-12.8-2.4l-22.7-7.6 l-8.7-6.8v-5.6l-6.4,3.8l-1.7-8.3l-18.4,8.8l-2,16.9l-7.1,7.7l3.4,9.2l-3.7,4.5C598.4,169.4,599.5,173.8,600.1,175.4z"></path><polygon id="DE" points="937.3,282.5 928.2,275.1 936.2,298 944.2,293.7 "></polygon><path id="KS" d="M548.2,306.2l-124-0.6l-3,72.5c17,0.7,101.8,2.9,139.8,3.9v-52.8c-10-8.9-10-10.2-10-11.6V311 L548.2,306.2z" class="tan" data-original-title="" title=""></path><path id="VA" d="M935.1,352.3l-4.6-10.6l-6.3-25h-10.4c-13.3-2.6-13.8-3.4-14.5-4.8c0,0,1.9-8.6,3.2-11.7 c-2.9-2.2-5.9-4.4-7-5c-1.6-0.2-5.5-0.8-15.9-2.7l-2.7,11.6c-12.6,16.5-13.6,16.6-16.4,14.9c-0.5-0.3-2.2-1-3.8-1.6l-6.5,28.8 l-27.8,15.2l-7.5-3.9l-17.4,16.1l21.6-2.4L935.1,352.3z" class="tan" data-original-title="" title=""></path><path id="OH" d="M750.8,246.3l6.8,64.4l10,2.2l4.5,7.6l10.1,2.5l9.8-5.6l7.9,5l3.8-13.1l19.9-19.1 c1.6-8.5,3.9-21.4,4.1-22.6c-0.1-0.9-3.5-23.9-6.2-41.8l-32.5,24.2l-13.1-5.5l-4.1,1.7L750.8,246.3z"></path><path id="MD" d="M931.9,306.2l-8.2-23.3l-3.3,7.8l10.2,19.4l4,24.8l7.3-31.4L931.9,306.2z M864.7,284.6l-5.3,4.6 l-0.6-3.4L864.7,284.6z M910.6,297.9c0,0-2.8,7-4,10.2c2.1,0.5,5.2,1.2,7.9,1.8l8.1,0l-6.2-27l3.8-10.1l-15,3.2l3.7,9.6l-6.9,6 C903.6,292.6,910.6,297.9,910.6,297.9z M900.8,283.5l-2.4-6.1l-11.1,2.4l7.5,8.6c0.1,0,0.2,0,0.4,0.1L900.8,283.5z"></path><path id="PA" d="M838.3,283.3l86.9-18.5l15.7-15l-11.5-11l-4.2-23.8l-4.2-1.5c-14.3,0.8-18.9,0.9-20.6,0.8 c-3.5,0.6-61.2,14.4-61.2,14.4l-7.5-10.7l-4.2,3.1c5.4,36.2,6.5,44.2,6.7,46.1L838.3,283.3z"></path><polygon id="GA" points="755.3,428.4 760.9,454.2 774.3,494.1 777.8,529.9 781,534.3 834.7,529.7 835.8,530.6 835.8,523 849.3,523 860.8,501.2 804.3,435.5 789.6,428.5 793.3,425.4 " class="tan" data-original-title="" title=""></polygon><polygon id="ME" points="1016.4,159.8 1013.5,142.5 1063,94.5 1030.6,32.6 1005.4,35.6 995.9,97.3 992.3,101.7 1014.5,159.9 " class="tan" data-original-title="" title=""></polygon><polygon id="NH" points="1007.6,160.8 987.4,107.8 985.9,109.6 988.9,124 983.6,137.8 983.6,171.9 1000.7,167.7 " class="tan" data-original-title="" title=""></polygon><polygon id="VT" points="960.4,143.8 966.4,157.9 970.1,175.3 976.8,173.6 977.1,135.9 981.9,123.5 979.9,114 954.6,120.8 960.4,134.3 "></polygon><polygon id="SC" points="864.2,494.8 894.7,437 870.5,418.7 852.2,422.5 840.3,412.7 815.4,415.3 802,426.9 809,430.6 " class="tan" data-original-title="" title=""></polygon><polygon id="TN" points="810.4,387.4 815.7,378.4 698.2,391.3 693,395.5 671.9,397.9 668.5,413.9 663.2,422.4 662.2,429.1 768.3,420.6 805.1,387.4 "></polygon><path id="OK" d="M473.5,451l2.1,4.5l19.9,3.7l6.1,7.5l15.6-2.4l12.9,5.9l28.1-5.9l7.7,5v-41.9l-4.4-38.5 c-43.2-1.1-134.3-3.6-143.4-4.1h-17.8l-0.2,8.4h59.8v54.4L473.5,451z"></path><path id="MO" d="M666.2,391.7l5.6-0.6c0.6-0.9,1.6-2.9,2.6-5.2l-2.9-4.5h-5.1l-3.8-15l-18.9-16.5l5.4-12.7l-1.7-2.2 l-6.1,5.9l-4-20.2c-12.3-7.3-13.2-8.5-13.6-9.1c-0.8-1.2-2.5-15.8-3-17.4c-1.2-1-2.8-2.6-3.9-3.8l-66.8,1.7l3.3,9.9l4.5,7.3v7.6 c1.3,1.5,5.4,5.4,8.8,8.5l1.1,1v59.1l1.1,10c8.1-0.7,86.8-2.3,86.8-2.3l7.3,7.9l-6.9,6.1l6.7,1.2L666.2,391.7z"></path><path id="AR" d="M647.5,449.4v-10.8l7.6-7.4l2-11.7l3-4.8l-18.9-3.3l12.2-10.8l-0.5-0.6c-29.5,0.5-71.6,1.4-83.1,2 l2.9,25l0,45.9l9.6,2.8v10.5h53.7l-1.1-3.9l3.7-25.6L647.5,449.4z"></path><path id="MS" d="M696.5,433.1l-36.8,2.9l-5.5,5.3v11.1l-9.3,7.8l-3.2,21.6l8,28.6l-8.3,13.1l-4,15.9h38l-1.1,11l9,9.3 c0.3-0.7,0.7-1.2,0.8-1.2c0.3,0,7.5-1.1,17-2.5l-4.6-36.8L696.5,433.1z"></path><path id="AL" d="M770.9,528.1l-3.2-32.5L754.4,456l-5.9-27l-45.1,3.6v86.3l4.5,36.2c4-0.6,8.1-1.2,12.3-1.8l-6.6-19.2 L770.9,528.1z" class="tan" data-original-title="" title=""></path><path id="LA" d="M677.5,577.2c-0.5-0.2,1.3-5.6,3.1-10.5L667.3,553l0.7-6.7h-39.3l6.7-25.9l7-11l-4.6-16.4h-55.6v24 l5.8,6.1l7.4,18.4l-5.7,18.7l1.8,6l-3.7,11.4c15.4,2.2,77.7,12.3,78.4,12.3c0.9,0,2-8.2,2-8.2l15.1,10.5l6.1-0.9 C689.3,591.3,678.3,577.5,677.5,577.2z"></path><path id="FL" d="M850.9,529.8h-8.3V545l-10.1-8.3l-54.8,4.7l-4.8-6.7l-50.2,5.3l4.2,12.3c12.3-1.9,22.6-3.4,22.6-3.4 l19.5,19.9c0,0,26.4-16.9,26.8-16.9s37.1,27.1,37.1,27.1s-1.4,20.9-1.2,22.3c0.3,1.4,48.5,70.6,49.4,71.4c0.9,0.8,16-7.1,17.2-7.3 c1.2-0.3,0.9-43.5,0.9-44.3C899.1,620.2,861.2,549.1,850.9,529.8z"></path><path id="MI" d="M640.3,125.2l5.6,4.4l20.7,6.8l17.9,3.4v15c0.6,0.5,1.5,1.2,2.5,2l4.7-9.9c0,0,33.1-6.6,33.9-7.3 c0,0-17.5,40.8-17.2,43c0.3,2.2,7.9,36.8,7.9,37.3c0,0.3-4.9,10.8-9.4,20.3l63.9-0.8l0.9-0.4l2.7-62.7c0,0-17.9,14-20.1,14.8 c-2.2,0.9,9.6-24.1,9.6-24.1l-6.1-18.2l-46.2-27.5l-33.5-7.6l-12.6,1.6l17.8-16l-5.2-2.5l-37.9,22.3V125.2z" class="tan" data-original-title="" title=""></path><path id="CT" d="M999.9,204.1l-3.9-9.7c-9.7,2.5-20.2,5.1-24.5,6.4l0.3,13.3l3.5,7.1L999.9,204.1z"></path><path id="RI" d="M1002.6,192.7l3.1,7.7l4.2-2.7l-5.8-5.4C1003.6,192.4,1003.1,192.6,1002.6,192.7z"></path><path id="MA" d="M1011.1,166.9l-7,7L971,182l0.3,11.8c5.4-1.6,34.8-8.9,34.8-8.9l9.8,9.1l5.8-3.6l-4.1-23.9 L1011.1,166.9z" class="tan" data-original-title="" title=""></path><path id="NY" d="M842.1,221c57.4-13.8,58-13.6,59.3-13.3c0.7,0,10.8-0.5,19.9-1l4.4,1.3l8.3-0.9l5.4,15.5l7.8-4.6 l20.3,8.4l2.1-1.4l-4.6-9.9l-0.4-16.5c0,0,0-0.1,0-0.1l-0.4-18.5l-4.2-19.9l-6.3-15.4V135l-5.7-12.8l-35.3,5.2l-19.5,27.3l3.2,14.7 c0,0-16.3,14.1-17.6,14.9c-1.3,0.9-14.4-4.9-14.4-4.9l-15.2,11l5.2,10.9l-17,12.7L842.1,221z M969.2,249.2l30.8-31.8 c0,0-3.1-0.9-5-1.4l-26.6,17.9L969.2,249.2z"></path><path id="NJ" d="M963.2,232.6l-15.4-7.2l-6.1,3.6l-5.9,6.1l12.2,12.2c-0.3,0.2-16.6,20.8-16.6,20.8l18.1,14.1l3.8-20.5 l11.8-10.4L963.2,232.6z" class="tan" data-original-title="" title=""></path><polygon id="NC" points="936.8,358.8 824.3,377.2 814.2,394.2 807.7,394.2 779.4,419.7 802,417.9 812.6,408.9 842.4,405.7 854,415.2 872.1,411.5 900.5,432.9 910.2,430.7 912.6,419.4 946.2,378.1 937.8,358.6 " class="tan" data-original-title="" title=""></polygon><path id="MN" d="M524.8,100.9l4.9,45.2l-0.4,0.9c-2,4.3-4.3,9.7-4.5,11c0.3-0.3,4.8,3,4.8,3v43.6h88.7l2.1-4.2 c-10.2-8.5-21-17.3-23.6-19c-2.2-0.3-6.6-17.8-6.6-17.8l3.2-3.9l-3.5-9.4l8.5-9.2l2.1-18.4l8.5-4.1l16.2-19.1l21.9-11.9h-35.6 l-47.3-16.9l-14.3-5.5L520.2,61c-0.1,7.4-0.1,28,0.2,30.3C520.8,92.2,524.8,100.9,524.8,100.9z" class="tan" data-original-title="" title=""></path><path id="ND" d="M518.2,102.2c-1.2-2.4-3.8-7.9-4.2-9.1c-0.6-1.7-0.7-24-0.3-33l-108-15.3c-0.8,13.2-3.2,50.6-5.8,91.6 l122.6,5.6L518.2,102.2z"></path><path id="NE" d="M514,232.2c-1.8,1-12.7,7.9-12.7,7.9s-7.6-12.3-9-13.7c-6.2-0.4-60.1-2.5-97.9-3.9 c-1.3,19.8-2.3,36.3-3,46.2l34.2,3.8l-1.1,26.4l121,0.6l-21.2-61C520.4,235.9,515.9,233.1,514,232.2z"></path><path id="CO" d="M414.5,377.9l4.1-99.5l-28.9-3.2l-94.4-10c-3.8,28.2-8.6,63.7-13.3,99.5l115.2,13.2L414.5,377.9z" class="tan" data-original-title="" title=""></path><path id="UT" d="M288.5,264.3l-37.7-5.9l3.5-27c-17.7-2.9-41-6.7-49.1-7.9l-23.6,124.9l93.6,15.4 C280.8,321.4,286,282.6,288.5,264.3z"></path><path id="WY" d="M384.6,267.9c0.8-12.3,3.5-55.1,6.4-100.4l-119.3-12.8L270,161l-11.7,91.8l34.3,5.4L384.6,267.9z"></path><path id="NV" d="M80.2,272.2l76.7,116.7c0.7-6.5,2.6-22.4,2.6-22.4h9.2l2.1,2.2l27.7-146.3 c-10.9-2.3-45.4-10-102.8-23.1L80.2,272.2z"></path><path id="TX" d="M588.2,541.8l-6.2-15.5l-6.6-6.4v-39.1l-8-2.5l-10.5-6.8l-27.5,5.9l-13.1-5.9l-17.4,2.7l-7-8.6 l-20.9-3.9l-2.2-4.8l-15.7-4.1v-52.8h-53.4l-9.1,118.1l-76.2-8.3l0.6,6.4c9.5,10.3,31.7,34.1,33.4,35.1c2.2,1.3,0,19.5,0,19.5 l26.3,23.4l12-19.4l31.2,2.4l47.7,86c0,0,40.5,17.8,41.8,17.8l-3.9-42.8c0,0,58.9-43.9,76.1-57l4.9-14.9l-1.7-5.9L588.2,541.8z" class="tan" data-original-title="" title=""></path><path id="MT" d="M222.2,98.2l-7.5,26.9l7.9-7.8l6.1,9.9l7.7,28.5l8.3-2.9l19.6,3.4l2.5-9.1l124.7,13.4 c3.2-50.5,6.5-102.2,7.4-116.9L207.1,16.5l-6,41.8l6.6,15.8L222.2,98.2z" class="tan" data-original-title="" title=""></path><polygon id="WA" points="73,84.9 98.4,89.4 140.1,89.4 168.3,100 186.8,13.6 90.6,0 95.9,24.6 84.5,41.9 83.7,22.4 55.8,3.8 53.7,58.8 73,71.5 "></polygon><path id="OR" d="M145.7,203.7l15-53l-7.8-7.8l21.4-28.5l-5.6-6.9l-29.8-11.3H97.8l-31.6-5.6V75.2l-14.1-9.3L17,142.5 l-1.2,24.1L94.1,192C109.7,195.6,128.3,199.8,145.7,203.7z" class="tan" data-original-title="" title=""></path><path id="SD" d="M494.2,219.8c1.1,0.3,3.1,0.7,9.3,10.9c5.1-3.2,8.1-4.9,9.1-5.3c1.2-0.4,2.5-0.7,10,3.9l-2-12.2 l2.2-9.5v-42.9c-2.2-1.6-4.8-4.1-4.8-6.9c0-1.5,1-4.5,3-9.1l-121.7-5.5c-1.6,24.7-3.2,50.3-4.6,72.5 C432.6,217.1,492.3,219.4,494.2,219.8z"></path><path id="ID" d="M182.9,114.2l-21.1,28l6.5,6.5l-16,56.5c26.5,6,82.4,16.1,102.8,19.5l7.8-61.6l-17.6-3.1l-13.5,4.7 l-10.5-36.6l-8.6,8.4l-5.7-11.4l7.8-26l-13.1-21.9l-7.5-17.9l6.2-43.7l-6.8-1l-19.2,89.1L182.9,114.2z"></path><path id="NM" d="M384.2,510.4l8.9-114.1l0.3-12L281,371.5c-8.4,62.6-16.6,124.4-19.4,146.3l11.3,1.5l3.9-8.1h30.9 l-0.8-9.3L384.2,510.4z" class="tan" data-original-title="" title=""></path><path id="HI" d="M342.3,641.4h11.9l-11.9-4.2V641.4z M357.5,644.6l7.2,7.8l7.6-4.2l-13-6.7L357.5,644.6z M396.6,670.3 c0,0-16.7-8.8-18.1-9.2l2.9,8.1l-6.9,4.2l4,5.1l-2.2,13.9l6.9,3.5l4-8.1l10.9-2.8l6.5-5.3l-8-5.2V670.3z M352.2,650.9l2.1-1.6 l-4.2-4.5L352.2,650.9z M278.9,617.2h6.9v-4.9h-6.9V617.2z M318.8,626.7v4.6l10.1,2.1l-5.1-6.7H318.8z"></path><path id="AZ" d="M180.3,355.1l-5.3,27.9l-9.5-9.6c-1.5,12.6-3.5,29.5-3.5,30.9c0.3,0.8,3.6,9.1,6.7,16.3l1,2.4l-8.5,6.7 l-11.6,18.1l6.6,5.6l-4.9,11l-1.4-0.4l62.7,47.3l42.2,5.6c3-23.3,11.5-87.3,19.4-146.4L180.3,355.1z" class="tan" data-original-title="" title=""></path><path id="CA" d="M30.9,381.3l23.5,10.1l34.4,37l2.6,24l45.7,4.9l4-3.3l6.5,2l0.4-0.8l-7.3-6.2l15.8-24.4l4.9-3.9 c-6.2-14.8-6.2-16-6.2-16.7c0-0.3,0.2-2.1,0.5-4.6L73,273.6l16.2-76l-73.6-23.8l-0.7,14.4L0,207.9l1.7,42c0,0,31.8,110.5,31.8,111.8 S30.9,381.3,30.9,381.3z"></path><path id="AK" d="M188.1,652.7l-21-14.1v-97.5L95,521.8l-33.3,14.8l6.5,7c0,0,1.5,8.8,1.8,9.9c0.4,1.1,6.9,3.9,6.9,3.9 s-2.9,10.2-4,10.2c-1.1,0-8-1.1-8-1.1l-0.4-7.7L49,562.6c0,0-1.8,10.2-1.8,11.3c0,1.1,26.8,17.9,26.8,17.9l-21.4,3.5 c0,0-14.1,10.5-15.2,11.6c-1.1,1.1,26.4,43.6,26.4,43.6l14.1-3.9l-19.9,20.4L28.4,677l29.7-4.2l37.7-22.5l-4.4-2.1l28.6-16.9 L109.9,646c0,0,15.6-3.5,16.6-3.5s0-8.1,0-8.1l14.9,1.1l10.5,8.8l9.4-1.4l35.1,18.3l26.8,34.8l12.3-14.8l-33.1-34.5L188.1,652.7z" class="tan active" data-original-title="" title=""></path></svg>